<?xml version="1.0" standalone="no"?>
<!DOCTYPE svg PUBLIC "-//W3C//DTD SVG 20010904//EN"
 "http://www.w3.org/TR/2001/REC-SVG-20010904/DTD/svg10.dtd">
<svg version="1.0" xmlns="http://www.w3.org/2000/svg"
 width="512.000000pt" height="512.000000pt" viewBox="0 0 512.000000 512.000000"
 preserveAspectRatio="xMidYMid meet">

<g transform="translate(0.000000,512.000000) scale(0.100000,-0.100000)"
fill="#000000" stroke="none">
<path d="M720 4600 l0 -120 -80 0 -80 0 0 -1080 0 -1080 799 0 799 0 6 -32 c9
-43 52 -97 92 -114 46 -19 321 -20 367 0 43 17 85 68 93 111 l6 35 799 0 799
0 0 880 0 880 38 0 c75 0 141 -28 196 -83 92 -92 87 -19 84 -1137 l-3 -975
-24 -45 c-48 -93 -130 -148 -232 -157 l-57 -6 -4 127 -3 126 -33 32 -32 33
-1810 0 -1810 0 -32 -33 -33 -32 0 -730 0 -730 33 -32 32 -33 1810 0 1810 0
32 33 33 32 3 564 2 563 64 5 c129 11 248 94 303 212 l28 61 0 1005 0 1005
-28 61 c-55 118 -174 201 -303 212 l-64 5 0 158 0 159 -80 0 -80 0 0 120 0
120 -743 -2 -742 -3 -66 -32 c-61 -30 -128 -89 -157 -139 -12 -19 -12 -19 -24
0 -29 50 -96 109 -157 139 l-66 32 -742 3 -743 2 0 -120z m1490 24 c39 -12 66
-29 104 -67 91 -92 86 -22 86 -1105 l0 -946 -37 36 c-21 21 -65 50 -98 65
l-60 28 -702 3 -703 3 0 999 0 1000 678 0 c590 0 685 -2 732 -16z m1870 -984
l0 -999 -702 -3 -703 -3 -60 -28 c-33 -15 -77 -44 -97 -65 l-38 -36 0 945 c0
1083 -5 1015 84 1105 87 86 51 83 834 83 l682 1 0 -1000z m-3360 -160 l0 -920
738 -2 737 -3 51 -27 c71 -37 121 -101 148 -190 8 -25 84 -25 92 0 27 89 77
153 148 190 l51 27 738 3 737 2 0 920 0 920 40 0 40 0 0 -1000 0 -1000 -800 0
-800 0 0 -55 c0 -46 -4 -60 -25 -80 -23 -24 -28 -25 -175 -25 -147 0 -152 1
-175 25 -21 20 -25 34 -25 80 l0 55 -800 0 -800 0 0 1000 0 1000 40 0 40 0 0
-920z m3508 -1572 c17 -17 17 -1399 0 -1416 -17 -17 -3559 -17 -3576 0 -17 17
-17 1399 0 1416 17 17 3559 17 3576 0z"/>
<path d="M1040 4360 l0 -40 280 0 280 0 0 40 0 40 -280 0 -280 0 0 -40z"/>
<path d="M1040 4120 l0 -40 520 0 520 0 0 40 0 40 -520 0 -520 0 0 -40z"/>
<path d="M1040 3880 l0 -40 520 0 520 0 0 40 0 40 -520 0 -520 0 0 -40z"/>
<path d="M1040 3640 l0 -40 520 0 520 0 0 40 0 40 -520 0 -520 0 0 -40z"/>
<path d="M1040 3400 l0 -40 520 0 520 0 0 40 0 40 -520 0 -520 0 0 -40z"/>
<path d="M1040 3160 l0 -40 520 0 520 0 0 40 0 40 -520 0 -520 0 0 -40z"/>
<path d="M1040 2920 l0 -40 520 0 520 0 0 40 0 40 -520 0 -520 0 0 -40z"/>
<path d="M2800 4120 l0 -40 520 0 520 0 0 40 0 40 -520 0 -520 0 0 -40z"/>
<path d="M2800 3880 l0 -40 520 0 520 0 0 40 0 40 -520 0 -520 0 0 -40z"/>
<path d="M2800 3640 l0 -40 520 0 520 0 0 40 0 40 -520 0 -520 0 0 -40z"/>
<path d="M2800 3400 l0 -40 520 0 520 0 0 40 0 40 -520 0 -520 0 0 -40z"/>
<path d="M2800 3160 l0 -40 520 0 520 0 0 40 0 40 -520 0 -520 0 0 -40z"/>
<path d="M2800 2920 l0 -40 440 0 440 0 0 40 0 40 -440 0 -440 0 0 -40z"/>
<path d="M720 1680 l0 -80 80 0 80 0 0 80 0 80 -80 0 -80 0 0 -80z"/>
<path d="M960 1680 l0 -80 80 0 80 0 0 80 0 80 -80 0 -80 0 0 -80z"/>
<path d="M1200 1680 l0 -80 80 0 80 0 0 80 0 80 -80 0 -80 0 0 -80z"/>
<path d="M1440 1680 l0 -80 80 0 80 0 0 80 0 80 -80 0 -80 0 0 -80z"/>
<path d="M1680 1680 l0 -80 80 0 80 0 0 80 0 80 -80 0 -80 0 0 -80z"/>
<path d="M1920 1680 l0 -80 80 0 80 0 0 80 0 80 -80 0 -80 0 0 -80z"/>
<path d="M2160 1680 l0 -80 80 0 80 0 0 80 0 80 -80 0 -80 0 0 -80z"/>
<path d="M2400 1680 l0 -80 80 0 80 0 0 80 0 80 -80 0 -80 0 0 -80z"/>
<path d="M2640 1680 l0 -80 80 0 80 0 0 80 0 80 -80 0 -80 0 0 -80z"/>
<path d="M2880 1680 l0 -80 80 0 80 0 0 80 0 80 -80 0 -80 0 0 -80z"/>
<path d="M3120 1680 l0 -80 120 0 120 0 0 80 0 80 -120 0 -120 0 0 -80z"/>
<path d="M3520 1680 l0 -80 80 0 80 0 0 80 0 80 -80 0 -80 0 0 -80z"/>
<path d="M3760 1680 l0 -80 80 0 80 0 0 80 0 80 -80 0 -80 0 0 -80z"/>
<path d="M4000 1680 l0 -80 80 0 80 0 0 80 0 80 -80 0 -80 0 0 -80z"/>
<path d="M720 1440 l0 -80 120 0 120 0 0 80 0 80 -120 0 -120 0 0 -80z"/>
<path d="M1040 1440 l0 -80 80 0 80 0 0 80 0 80 -80 0 -80 0 0 -80z"/>
<path d="M1280 1440 l0 -80 80 0 80 0 0 80 0 80 -80 0 -80 0 0 -80z"/>
<path d="M1520 1440 l0 -80 80 0 80 0 0 80 0 80 -80 0 -80 0 0 -80z"/>
<path d="M1760 1440 l0 -80 80 0 80 0 0 80 0 80 -80 0 -80 0 0 -80z"/>
<path d="M2000 1440 l0 -80 80 0 80 0 0 80 0 80 -80 0 -80 0 0 -80z"/>
<path d="M2240 1440 l0 -80 80 0 80 0 0 80 0 80 -80 0 -80 0 0 -80z"/>
<path d="M2480 1440 l0 -80 80 0 80 0 0 80 0 80 -80 0 -80 0 0 -80z"/>
<path d="M2720 1440 l0 -80 80 0 80 0 0 80 0 80 -80 0 -80 0 0 -80z"/>
<path d="M2960 1440 l0 -80 80 0 80 0 0 80 0 80 -80 0 -80 0 0 -80z"/>
<path d="M3200 1440 l0 -80 80 0 80 0 0 80 0 80 -80 0 -80 0 0 -80z"/>
<path d="M3520 1440 l0 -80 80 0 80 0 0 80 0 80 -80 0 -80 0 0 -80z"/>
<path d="M3760 1440 l0 -80 80 0 80 0 0 80 0 80 -80 0 -80 0 0 -80z"/>
<path d="M4000 1440 l0 -80 80 0 80 0 0 80 0 80 -80 0 -80 0 0 -80z"/>
<path d="M720 1200 l0 -80 160 0 160 0 0 80 0 80 -160 0 -160 0 0 -80z"/>
<path d="M1120 1200 l0 -80 80 0 80 0 0 80 0 80 -80 0 -80 0 0 -80z"/>
<path d="M1360 1200 l0 -80 80 0 80 0 0 80 0 80 -80 0 -80 0 0 -80z"/>
<path d="M1600 1200 l0 -80 80 0 80 0 0 80 0 80 -80 0 -80 0 0 -80z"/>
<path d="M1840 1200 l0 -80 80 0 80 0 0 80 0 80 -80 0 -80 0 0 -80z"/>
<path d="M2080 1200 l0 -80 80 0 80 0 0 80 0 80 -80 0 -80 0 0 -80z"/>
<path d="M2320 1200 l0 -80 80 0 80 0 0 80 0 80 -80 0 -80 0 0 -80z"/>
<path d="M2560 1200 l0 -80 80 0 80 0 0 80 0 80 -80 0 -80 0 0 -80z"/>
<path d="M2800 1200 l0 -80 80 0 80 0 0 80 0 80 -80 0 -80 0 0 -80z"/>
<path d="M3040 1200 l0 -80 160 0 160 0 0 80 0 80 -160 0 -160 0 0 -80z"/>
<path d="M720 960 l0 -80 200 0 200 0 0 80 0 80 -200 0 -200 0 0 -80z"/>
<path d="M1200 960 l0 -80 80 0 80 0 0 80 0 80 -80 0 -80 0 0 -80z"/>
<path d="M1440 960 l0 -80 80 0 80 0 0 80 0 80 -80 0 -80 0 0 -80z"/>
<path d="M1680 960 l0 -80 80 0 80 0 0 80 0 80 -80 0 -80 0 0 -80z"/>
<path d="M1920 960 l0 -80 80 0 80 0 0 80 0 80 -80 0 -80 0 0 -80z"/>
<path d="M2160 960 l0 -80 80 0 80 0 0 80 0 80 -80 0 -80 0 0 -80z"/>
<path d="M2400 960 l0 -80 80 0 80 0 0 80 0 80 -80 0 -80 0 0 -80z"/>
<path d="M2640 960 l0 -80 80 0 80 0 0 80 0 80 -80 0 -80 0 0 -80z"/>
<path d="M2880 960 l0 -80 240 0 240 0 0 80 0 80 -240 0 -240 0 0 -80z"/>
<path d="M3760 960 l0 -80 80 0 80 0 0 80 0 80 -80 0 -80 0 0 -80z"/>
<path d="M720 720 l0 -80 120 0 120 0 0 80 0 80 -120 0 -120 0 0 -80z"/>
<path d="M1040 720 l0 -80 80 0 80 0 0 80 0 80 -80 0 -80 0 0 -80z"/>
<path d="M1280 720 l0 -80 640 0 640 0 0 80 0 80 -640 0 -640 0 0 -80z"/>
<path d="M2640 720 l0 -80 80 0 80 0 0 80 0 80 -80 0 -80 0 0 -80z"/>
<path d="M2880 720 l0 -80 80 0 80 0 0 80 0 80 -80 0 -80 0 0 -80z"/>
<path d="M3120 720 l0 -80 120 0 120 0 0 80 0 80 -120 0 -120 0 0 -80z"/>
<path d="M3520 720 l0 -80 80 0 80 0 0 80 0 80 -80 0 -80 0 0 -80z"/>
<path d="M3760 720 l0 -80 80 0 80 0 0 80 0 80 -80 0 -80 0 0 -80z"/>
<path d="M4000 720 l0 -80 80 0 80 0 0 80 0 80 -80 0 -80 0 0 -80z"/>
</g>
</svg>
