<?xml version="1.0" standalone="no"?>
<!DOCTYPE svg PUBLIC "-//W3C//DTD SVG 20010904//EN"
 "http://www.w3.org/TR/2001/REC-SVG-20010904/DTD/svg10.dtd">
<svg version="1.0" xmlns="http://www.w3.org/2000/svg"
 width="486" height="320" viewBox="0 0 500 500"
 preserveAspectRatio="xMidYMid meet">

<g transform="translate(0.000000,512.000000) scale(0.100000,-0.100000)"
fill="#000000" stroke="none">
<path d="M662 4545 c-188 -41 -361 -183 -444 -364 -60 -131 -59 -96 -56 -1334
l3 -1132 27 -73 c38 -105 83 -176 158 -252 76 -75 147 -120 252 -158 l73 -27
1880 0 1880 0 70 22 c98 31 189 87 265 163 75 76 120 148 158 252 l27 73 0
1165 0 1165 -27 73 c-60 167 -173 297 -319 370 -152 77 -12 72 -2054 71 -1506
0 -1841 -3 -1893 -14z m1031 -913 c84 -42 147 -105 189 -189 32 -65 33 -72 37
-210 l3 -144 32 -16 c91 -46 162 -133 191 -236 14 -48 16 -94 13 -260 -3 -202
-3 -202 -34 -267 -41 -86 -108 -153 -192 -193 l-67 -32 -345 0 -345 0 -65 31
c-86 41 -153 108 -193 192 l-32 67 -3 203 c-3 183 -2 209 17 270 27 88 77 154
154 203 l62 40 5 142 c5 132 8 147 36 207 48 100 140 181 247 216 26 9 76 13
133 11 79 -2 100 -7 157 -35z m1093 -608 c103 -49 125 -175 45 -255 -66 -66
-159 -65 -223 2 -122 128 19 328 178 253z m640 0 c103 -49 125 -175 45 -255
-66 -66 -159 -65 -223 2 -122 128 19 328 178 253z m640 0 c103 -49 125 -175
45 -255 -66 -66 -159 -65 -223 2 -122 128 19 328 178 253z"/>
<path d="M1462 3327 c-19 -20 -22 -35 -22 -115 l0 -92 80 0 80 0 0 93 c0 85
-2 96 -23 115 -32 30 -87 29 -115 -1z"/>
<path d="M1872 1005 c-24 -14 -62 -40 -84 -59 -22 -20 -75 -49 -117 -67 -42
-17 -88 -43 -104 -57 -76 -72 -51 -208 46 -252 40 -19 76 -20 928 -20 967 0
956 -1 1011 57 86 90 59 191 -72 270 -41 25 -98 62 -125 82 -102 77 -40 71
-777 71 l-663 0 -43 -25z"/>
</g>
</svg>
